<mxfile host="Electron" agent="Mozilla/5.0 (Windows NT 10.0; Win64; x64) AppleWebKit/537.36 (KHTML, like Gecko) draw.io/27.0.9 Chrome/134.0.6998.205 Electron/35.4.0 Safari/537.36" version="27.0.9">
  <diagram name="페이지-1" id="gXngIB_PRCo4_qggY9hZ">
    <mxGraphModel dx="1722" dy="2170" grid="1" gridSize="10" guides="1" tooltips="1" connect="1" arrows="1" fold="1" page="1" pageScale="1" pageWidth="827" pageHeight="1169" math="0" shadow="0">
      <root>
        <mxCell id="0" />
        <mxCell id="1" parent="0" />
        <mxCell id="JsuIZHI8pPv00p21QjEl-1" style="edgeStyle=orthogonalEdgeStyle;rounded=0;orthogonalLoop=1;jettySize=auto;html=1;exitX=0.5;exitY=1;exitDx=0;exitDy=0;entryX=0.5;entryY=0;entryDx=0;entryDy=0;" parent="1" source="JsuIZHI8pPv00p21QjEl-2" target="JsuIZHI8pPv00p21QjEl-7" edge="1">
          <mxGeometry relative="1" as="geometry" />
        </mxCell>
        <mxCell id="JsuIZHI8pPv00p21QjEl-2" value="쿠키 데이터&lt;div&gt;사용 권한 요청&lt;/div&gt;" style="rounded=0;whiteSpace=wrap;html=1;fillColor=#ffe6cc;strokeColor=#d79b00;" parent="1" vertex="1">
          <mxGeometry x="310" y="660" width="120" height="60" as="geometry" />
        </mxCell>
        <mxCell id="JsuIZHI8pPv00p21QjEl-3" style="edgeStyle=orthogonalEdgeStyle;rounded=0;orthogonalLoop=1;jettySize=auto;html=1;exitX=1;exitY=0.5;exitDx=0;exitDy=0;entryX=1;entryY=0.5;entryDx=0;entryDy=0;" parent="1" source="JsuIZHI8pPv00p21QjEl-7" target="JsuIZHI8pPv00p21QjEl-2" edge="1">
          <mxGeometry relative="1" as="geometry">
            <Array as="points">
              <mxPoint x="470" y="800" />
              <mxPoint x="470" y="690" />
            </Array>
          </mxGeometry>
        </mxCell>
        <mxCell id="JsuIZHI8pPv00p21QjEl-4" value="NO" style="edgeLabel;html=1;align=center;verticalAlign=middle;resizable=0;points=[];" parent="JsuIZHI8pPv00p21QjEl-3" vertex="1" connectable="0">
          <mxGeometry x="0.0952" y="-1" relative="1" as="geometry">
            <mxPoint as="offset" />
          </mxGeometry>
        </mxCell>
        <mxCell id="JsuIZHI8pPv00p21QjEl-5" style="edgeStyle=orthogonalEdgeStyle;rounded=0;orthogonalLoop=1;jettySize=auto;html=1;exitX=0.5;exitY=1;exitDx=0;exitDy=0;entryX=0.5;entryY=0;entryDx=0;entryDy=0;" parent="1" source="JsuIZHI8pPv00p21QjEl-7" target="JsuIZHI8pPv00p21QjEl-11" edge="1">
          <mxGeometry relative="1" as="geometry" />
        </mxCell>
        <mxCell id="JsuIZHI8pPv00p21QjEl-6" value="YES" style="edgeLabel;html=1;align=center;verticalAlign=middle;resizable=0;points=[];" parent="JsuIZHI8pPv00p21QjEl-5" vertex="1" connectable="0">
          <mxGeometry x="-0.4" y="-2" relative="1" as="geometry">
            <mxPoint as="offset" />
          </mxGeometry>
        </mxCell>
        <mxCell id="JsuIZHI8pPv00p21QjEl-7" value="사용 권한&lt;div&gt;요청 승인?&lt;/div&gt;" style="rhombus;whiteSpace=wrap;html=1;" parent="1" vertex="1">
          <mxGeometry x="330" y="760" width="80" height="80" as="geometry" />
        </mxCell>
        <mxCell id="JsuIZHI8pPv00p21QjEl-8" style="edgeStyle=orthogonalEdgeStyle;rounded=0;orthogonalLoop=1;jettySize=auto;html=1;exitX=0.5;exitY=1;exitDx=0;exitDy=0;entryX=0.5;entryY=0;entryDx=0;entryDy=0;" parent="1" source="JsuIZHI8pPv00p21QjEl-9" target="JsuIZHI8pPv00p21QjEl-25" edge="1">
          <mxGeometry relative="1" as="geometry" />
        </mxCell>
        <mxCell id="JsuIZHI8pPv00p21QjEl-9" value="사용자 프로파일&lt;div&gt;접근&lt;/div&gt;" style="rounded=0;whiteSpace=wrap;html=1;fillColor=#ffe6cc;strokeColor=#d79b00;" parent="1" vertex="1">
          <mxGeometry x="410" y="1300" width="120" height="60" as="geometry" />
        </mxCell>
        <mxCell id="JsuIZHI8pPv00p21QjEl-10" style="edgeStyle=orthogonalEdgeStyle;rounded=0;orthogonalLoop=1;jettySize=auto;html=1;exitX=0.5;exitY=1;exitDx=0;exitDy=0;entryX=0.5;entryY=0;entryDx=0;entryDy=0;" parent="1" source="JsuIZHI8pPv00p21QjEl-11" target="JsuIZHI8pPv00p21QjEl-16" edge="1">
          <mxGeometry relative="1" as="geometry" />
        </mxCell>
        <mxCell id="JsuIZHI8pPv00p21QjEl-11" value="쿠키 데이터&lt;div&gt;접근&lt;/div&gt;" style="rounded=0;whiteSpace=wrap;html=1;fillColor=#ffe6cc;strokeColor=#d79b00;" parent="1" vertex="1">
          <mxGeometry x="310" y="880" width="120" height="60" as="geometry" />
        </mxCell>
        <mxCell id="JsuIZHI8pPv00p21QjEl-12" style="edgeStyle=orthogonalEdgeStyle;rounded=0;orthogonalLoop=1;jettySize=auto;html=1;exitX=0.5;exitY=1;exitDx=0;exitDy=0;" parent="1" source="JsuIZHI8pPv00p21QjEl-16" target="JsuIZHI8pPv00p21QjEl-18" edge="1">
          <mxGeometry relative="1" as="geometry" />
        </mxCell>
        <mxCell id="JsuIZHI8pPv00p21QjEl-13" value="YES" style="edgeLabel;html=1;align=center;verticalAlign=middle;resizable=0;points=[];" parent="JsuIZHI8pPv00p21QjEl-12" vertex="1" connectable="0">
          <mxGeometry x="-0.3" y="-1" relative="1" as="geometry">
            <mxPoint as="offset" />
          </mxGeometry>
        </mxCell>
        <mxCell id="JsuIZHI8pPv00p21QjEl-14" style="edgeStyle=orthogonalEdgeStyle;rounded=0;orthogonalLoop=1;jettySize=auto;html=1;exitX=1;exitY=0.5;exitDx=0;exitDy=0;" parent="1" source="JsuIZHI8pPv00p21QjEl-16" target="JsuIZHI8pPv00p21QjEl-20" edge="1">
          <mxGeometry relative="1" as="geometry" />
        </mxCell>
        <mxCell id="JsuIZHI8pPv00p21QjEl-15" value="NO" style="edgeLabel;html=1;align=center;verticalAlign=middle;resizable=0;points=[];" parent="JsuIZHI8pPv00p21QjEl-14" vertex="1" connectable="0">
          <mxGeometry x="0.7417" y="2" relative="1" as="geometry">
            <mxPoint as="offset" />
          </mxGeometry>
        </mxCell>
        <mxCell id="JsuIZHI8pPv00p21QjEl-16" value="쿠키 데이터&lt;div&gt;존재?&lt;/div&gt;" style="rhombus;whiteSpace=wrap;html=1;" parent="1" vertex="1">
          <mxGeometry x="330" y="980" width="80" height="80" as="geometry" />
        </mxCell>
        <mxCell id="JsuIZHI8pPv00p21QjEl-17" style="edgeStyle=orthogonalEdgeStyle;rounded=0;orthogonalLoop=1;jettySize=auto;html=1;exitX=0.5;exitY=1;exitDx=0;exitDy=0;entryX=0.5;entryY=0;entryDx=0;entryDy=0;" parent="1" source="JsuIZHI8pPv00p21QjEl-18" target="JsuIZHI8pPv00p21QjEl-22" edge="1">
          <mxGeometry relative="1" as="geometry" />
        </mxCell>
        <mxCell id="JsuIZHI8pPv00p21QjEl-18" value="쿠키 데이터 분석" style="rounded=0;whiteSpace=wrap;html=1;fillColor=#ffe6cc;strokeColor=#d79b00;" parent="1" vertex="1">
          <mxGeometry x="310" y="1100" width="120" height="60" as="geometry" />
        </mxCell>
        <mxCell id="JsuIZHI8pPv00p21QjEl-19" style="edgeStyle=orthogonalEdgeStyle;rounded=0;orthogonalLoop=1;jettySize=auto;html=1;exitX=0.5;exitY=1;exitDx=0;exitDy=0;entryX=0.5;entryY=0;entryDx=0;entryDy=0;" parent="1" source="JsuIZHI8pPv00p21QjEl-20" target="JsuIZHI8pPv00p21QjEl-9" edge="1">
          <mxGeometry relative="1" as="geometry" />
        </mxCell>
        <mxCell id="JsuIZHI8pPv00p21QjEl-20" value="디폴트 사용자&lt;div&gt;프로파일 생성&lt;/div&gt;" style="rounded=0;whiteSpace=wrap;html=1;fillColor=#ffe6cc;strokeColor=#d79b00;" parent="1" vertex="1">
          <mxGeometry x="510" y="1200" width="120" height="60" as="geometry" />
        </mxCell>
        <mxCell id="JsuIZHI8pPv00p21QjEl-21" style="edgeStyle=orthogonalEdgeStyle;rounded=0;orthogonalLoop=1;jettySize=auto;html=1;exitX=0.5;exitY=1;exitDx=0;exitDy=0;" parent="1" source="JsuIZHI8pPv00p21QjEl-22" target="JsuIZHI8pPv00p21QjEl-9" edge="1">
          <mxGeometry relative="1" as="geometry" />
        </mxCell>
        <mxCell id="JsuIZHI8pPv00p21QjEl-22" value="개인화된&lt;div&gt;사용자 프로파일&lt;/div&gt;&lt;div&gt;생성&lt;/div&gt;" style="rounded=0;whiteSpace=wrap;html=1;fillColor=#ffe6cc;strokeColor=#d79b00;" parent="1" vertex="1">
          <mxGeometry x="310" y="1200" width="120" height="60" as="geometry" />
        </mxCell>
        <mxCell id="JsuIZHI8pPv00p21QjEl-23" style="edgeStyle=orthogonalEdgeStyle;rounded=0;orthogonalLoop=1;jettySize=auto;html=1;exitX=0;exitY=0.5;exitDx=0;exitDy=0;entryX=0;entryY=0.5;entryDx=0;entryDy=0;" parent="1" source="JsuIZHI8pPv00p21QjEl-25" target="JsuIZHI8pPv00p21QjEl-11" edge="1">
          <mxGeometry relative="1" as="geometry">
            <Array as="points">
              <mxPoint x="270" y="1440" />
              <mxPoint x="270" y="910" />
            </Array>
          </mxGeometry>
        </mxCell>
        <mxCell id="JsuIZHI8pPv00p21QjEl-24" value="YES" style="edgeLabel;html=1;align=center;verticalAlign=middle;resizable=0;points=[];" parent="JsuIZHI8pPv00p21QjEl-23" vertex="1" connectable="0">
          <mxGeometry x="0.0032" y="2" relative="1" as="geometry">
            <mxPoint as="offset" />
          </mxGeometry>
        </mxCell>
        <mxCell id="JsuIZHI8pPv00p21QjEl-53" style="edgeStyle=orthogonalEdgeStyle;rounded=0;orthogonalLoop=1;jettySize=auto;html=1;exitX=0.5;exitY=1;exitDx=0;exitDy=0;entryX=0;entryY=0.5;entryDx=0;entryDy=0;" parent="1" source="JsuIZHI8pPv00p21QjEl-25" target="JsuIZHI8pPv00p21QjEl-48" edge="1">
          <mxGeometry relative="1" as="geometry" />
        </mxCell>
        <mxCell id="JsuIZHI8pPv00p21QjEl-54" value="NO" style="edgeLabel;html=1;align=center;verticalAlign=middle;resizable=0;points=[];" parent="JsuIZHI8pPv00p21QjEl-53" vertex="1" connectable="0">
          <mxGeometry x="-0.854" y="-4" relative="1" as="geometry">
            <mxPoint as="offset" />
          </mxGeometry>
        </mxCell>
        <mxCell id="JsuIZHI8pPv00p21QjEl-25" value="프로파일&lt;div&gt;보관 기한&lt;/div&gt;&lt;div&gt;초과&lt;/div&gt;" style="rhombus;whiteSpace=wrap;html=1;" parent="1" vertex="1">
          <mxGeometry x="430" y="1400" width="80" height="80" as="geometry" />
        </mxCell>
        <mxCell id="JsuIZHI8pPv00p21QjEl-26" value="인터페이스 모듈" style="swimlane;horizontal=0;whiteSpace=wrap;html=1;direction=west;fillColor=#6d8764;strokeColor=#3A5431;fontColor=#ffffff;" parent="1" vertex="1">
          <mxGeometry x="190" y="220" width="520" height="420" as="geometry" />
        </mxCell>
        <mxCell id="JsuIZHI8pPv00p21QjEl-29" value="사용자 프로파일(.JSON)&amp;nbsp;&lt;div&gt;존재?&lt;/div&gt;" style="rhombus;whiteSpace=wrap;html=1;" parent="JsuIZHI8pPv00p21QjEl-26" vertex="1">
          <mxGeometry x="140" y="270" width="80" height="80" as="geometry" />
        </mxCell>
        <mxCell id="JsuIZHI8pPv00p21QjEl-30" style="edgeStyle=orthogonalEdgeStyle;rounded=0;orthogonalLoop=1;jettySize=auto;html=1;exitX=0.5;exitY=1;exitDx=0;exitDy=0;entryX=0.5;entryY=0;entryDx=0;entryDy=0;" parent="JsuIZHI8pPv00p21QjEl-26" source="JsuIZHI8pPv00p21QjEl-31" target="JsuIZHI8pPv00p21QjEl-34" edge="1">
          <mxGeometry relative="1" as="geometry" />
        </mxCell>
        <mxCell id="JsuIZHI8pPv00p21QjEl-31" value="기존의 뉴스데이터&lt;div&gt;요약본 확인&lt;/div&gt;" style="rounded=0;whiteSpace=wrap;html=1;fillColor=#dae8fc;strokeColor=#6c8ebf;" parent="JsuIZHI8pPv00p21QjEl-26" vertex="1">
          <mxGeometry x="120" y="20" width="120" height="60" as="geometry" />
        </mxCell>
        <mxCell id="JsuIZHI8pPv00p21QjEl-32" style="edgeStyle=orthogonalEdgeStyle;rounded=0;orthogonalLoop=1;jettySize=auto;html=1;exitX=0.5;exitY=1;exitDx=0;exitDy=0;" parent="JsuIZHI8pPv00p21QjEl-26" source="JsuIZHI8pPv00p21QjEl-34" target="JsuIZHI8pPv00p21QjEl-29" edge="1">
          <mxGeometry relative="1" as="geometry">
            <mxPoint x="190" y="270" as="targetPoint" />
          </mxGeometry>
        </mxCell>
        <mxCell id="JsuIZHI8pPv00p21QjEl-33" value="YES" style="edgeLabel;html=1;align=center;verticalAlign=middle;resizable=0;points=[];" parent="JsuIZHI8pPv00p21QjEl-32" vertex="1" connectable="0">
          <mxGeometry x="-0.1877" y="1" relative="1" as="geometry">
            <mxPoint as="offset" />
          </mxGeometry>
        </mxCell>
        <mxCell id="JsuIZHI8pPv00p21QjEl-34" value="생성된지&lt;div&gt;3시간 이상?&lt;/div&gt;" style="rhombus;whiteSpace=wrap;html=1;" parent="JsuIZHI8pPv00p21QjEl-26" vertex="1">
          <mxGeometry x="140" y="130" width="80" height="80" as="geometry" />
        </mxCell>
        <mxCell id="JsuIZHI8pPv00p21QjEl-35" style="edgeStyle=orthogonalEdgeStyle;rounded=0;orthogonalLoop=1;jettySize=auto;html=1;exitX=1;exitY=0.5;exitDx=0;exitDy=0;entryX=1;entryY=0.5;entryDx=0;entryDy=0;" parent="1" source="JsuIZHI8pPv00p21QjEl-29" target="JsuIZHI8pPv00p21QjEl-25" edge="1">
          <mxGeometry relative="1" as="geometry">
            <Array as="points">
              <mxPoint x="650" y="530" />
              <mxPoint x="650" y="1440" />
            </Array>
          </mxGeometry>
        </mxCell>
        <mxCell id="JsuIZHI8pPv00p21QjEl-36" value="YES" style="edgeLabel;html=1;align=center;verticalAlign=middle;resizable=0;points=[];" parent="JsuIZHI8pPv00p21QjEl-35" vertex="1" connectable="0">
          <mxGeometry x="-0.7682" y="-2" relative="1" as="geometry">
            <mxPoint y="-2" as="offset" />
          </mxGeometry>
        </mxCell>
        <mxCell id="JsuIZHI8pPv00p21QjEl-37" style="edgeStyle=orthogonalEdgeStyle;rounded=0;orthogonalLoop=1;jettySize=auto;html=1;exitX=0.5;exitY=1;exitDx=0;exitDy=0;" parent="1" source="JsuIZHI8pPv00p21QjEl-29" target="JsuIZHI8pPv00p21QjEl-2" edge="1">
          <mxGeometry relative="1" as="geometry" />
        </mxCell>
        <mxCell id="JsuIZHI8pPv00p21QjEl-38" value="NO" style="edgeLabel;html=1;align=center;verticalAlign=middle;resizable=0;points=[];" parent="JsuIZHI8pPv00p21QjEl-37" vertex="1" connectable="0">
          <mxGeometry x="-0.1516" relative="1" as="geometry">
            <mxPoint y="-11" as="offset" />
          </mxGeometry>
        </mxCell>
        <mxCell id="JsuIZHI8pPv00p21QjEl-39" value="뉴스 데이터 분석 모듈" style="swimlane;horizontal=0;whiteSpace=wrap;html=1;direction=west;fillColor=#e3c800;fontColor=#000000;strokeColor=#B09500;" parent="1" vertex="1">
          <mxGeometry x="827" y="220" width="520" height="810" as="geometry" />
        </mxCell>
        <mxCell id="JsuIZHI8pPv00p21QjEl-41" style="edgeStyle=orthogonalEdgeStyle;rounded=0;orthogonalLoop=1;jettySize=auto;html=1;exitX=0.5;exitY=1;exitDx=0;exitDy=0;entryX=0.5;entryY=0;entryDx=0;entryDy=0;" parent="JsuIZHI8pPv00p21QjEl-39" source="JsuIZHI8pPv00p21QjEl-42" target="JsuIZHI8pPv00p21QjEl-44" edge="1">
          <mxGeometry relative="1" as="geometry" />
        </mxCell>
        <mxCell id="JsuIZHI8pPv00p21QjEl-42" value="외부 API 호출&lt;div&gt;(AI, 뉴스 API)&lt;/div&gt;" style="rounded=0;whiteSpace=wrap;html=1;fillColor=#d5e8d4;strokeColor=#82b366;" parent="JsuIZHI8pPv00p21QjEl-39" vertex="1">
          <mxGeometry x="193" y="20" width="120" height="60" as="geometry" />
        </mxCell>
        <mxCell id="JsuIZHI8pPv00p21QjEl-43" style="edgeStyle=orthogonalEdgeStyle;rounded=0;orthogonalLoop=1;jettySize=auto;html=1;exitX=0.5;exitY=1;exitDx=0;exitDy=0;" parent="JsuIZHI8pPv00p21QjEl-39" source="JsuIZHI8pPv00p21QjEl-44" target="JsuIZHI8pPv00p21QjEl-46" edge="1">
          <mxGeometry relative="1" as="geometry" />
        </mxCell>
        <mxCell id="JsuIZHI8pPv00p21QjEl-44" value="뉴스 데이터 크롤링" style="rounded=0;whiteSpace=wrap;html=1;fillColor=#dae8fc;strokeColor=#6c8ebf;" parent="JsuIZHI8pPv00p21QjEl-39" vertex="1">
          <mxGeometry x="193" y="120" width="120" height="60" as="geometry" />
        </mxCell>
        <mxCell id="JsuIZHI8pPv00p21QjEl-45" style="edgeStyle=orthogonalEdgeStyle;rounded=0;orthogonalLoop=1;jettySize=auto;html=1;exitX=0.5;exitY=1;exitDx=0;exitDy=0;entryX=0.5;entryY=0;entryDx=0;entryDy=0;" parent="JsuIZHI8pPv00p21QjEl-39" source="JsuIZHI8pPv00p21QjEl-46" target="JsuIZHI8pPv00p21QjEl-48" edge="1">
          <mxGeometry relative="1" as="geometry" />
        </mxCell>
        <mxCell id="JsuIZHI8pPv00p21QjEl-46" value="AI 호출" style="rounded=0;whiteSpace=wrap;html=1;fillColor=#d5e8d4;strokeColor=#82b366;" parent="JsuIZHI8pPv00p21QjEl-39" vertex="1">
          <mxGeometry x="193" y="365" width="120" height="60" as="geometry" />
        </mxCell>
        <mxCell id="JsuIZHI8pPv00p21QjEl-47" style="edgeStyle=orthogonalEdgeStyle;rounded=0;orthogonalLoop=1;jettySize=auto;html=1;exitX=0.5;exitY=1;exitDx=0;exitDy=0;entryX=0.5;entryY=0;entryDx=0;entryDy=0;" parent="JsuIZHI8pPv00p21QjEl-39" source="JsuIZHI8pPv00p21QjEl-48" target="JsuIZHI8pPv00p21QjEl-50" edge="1">
          <mxGeometry relative="1" as="geometry" />
        </mxCell>
        <mxCell id="JsuIZHI8pPv00p21QjEl-48" value="사용자 파일 프로파일 기반&lt;div&gt;뉴스 데이터 요약&lt;/div&gt;&lt;div&gt;(Langchain 요약체인)&lt;/div&gt;" style="rounded=0;whiteSpace=wrap;html=1;fillColor=#dae8fc;strokeColor=#6c8ebf;" parent="JsuIZHI8pPv00p21QjEl-39" vertex="1">
          <mxGeometry x="193" y="515" width="120" height="60" as="geometry" />
        </mxCell>
        <mxCell id="JsuIZHI8pPv00p21QjEl-49" style="edgeStyle=orthogonalEdgeStyle;rounded=0;orthogonalLoop=1;jettySize=auto;html=1;exitX=0.5;exitY=1;exitDx=0;exitDy=0;entryX=0.5;entryY=0;entryDx=0;entryDy=0;" parent="JsuIZHI8pPv00p21QjEl-39" source="JsuIZHI8pPv00p21QjEl-50" edge="1">
          <mxGeometry relative="1" as="geometry">
            <mxPoint x="253" y="715" as="targetPoint" />
          </mxGeometry>
        </mxCell>
        <mxCell id="JsuIZHI8pPv00p21QjEl-50" value="요약된 내용을 바탕으로&lt;div&gt;재질의&lt;/div&gt;" style="rounded=0;whiteSpace=wrap;html=1;fillColor=#d5e8d4;strokeColor=#82b366;" parent="JsuIZHI8pPv00p21QjEl-39" vertex="1">
          <mxGeometry x="193" y="615" width="120" height="60" as="geometry" />
        </mxCell>
        <mxCell id="JsuIZHI8pPv00p21QjEl-64" style="edgeStyle=orthogonalEdgeStyle;rounded=0;orthogonalLoop=1;jettySize=auto;html=1;exitX=0.5;exitY=1;exitDx=0;exitDy=0;entryX=0.5;entryY=0;entryDx=0;entryDy=0;" parent="JsuIZHI8pPv00p21QjEl-39" source="JsuIZHI8pPv00p21QjEl-51" target="JsuIZHI8pPv00p21QjEl-59" edge="1">
          <mxGeometry relative="1" as="geometry" />
        </mxCell>
        <mxCell id="JsuIZHI8pPv00p21QjEl-51" value="뉴스 데이터&amp;nbsp;&lt;div&gt;요약본 생성&lt;/div&gt;&lt;div&gt;(Langchain&amp;nbsp;&lt;/div&gt;&lt;div&gt;재질의 체인)&lt;/div&gt;" style="rounded=0;whiteSpace=wrap;html=1;fillColor=#dae8fc;strokeColor=#6c8ebf;" parent="JsuIZHI8pPv00p21QjEl-39" vertex="1">
          <mxGeometry x="193" y="715" width="120" height="60" as="geometry" />
        </mxCell>
        <mxCell id="JsuIZHI8pPv00p21QjEl-57" value="인터페이스 모듈" style="swimlane;horizontal=0;whiteSpace=wrap;html=1;direction=west;fillColor=#6d8764;fontColor=#ffffff;strokeColor=#3A5431;startSize=23;" parent="JsuIZHI8pPv00p21QjEl-39" vertex="1">
          <mxGeometry y="810" width="520" height="250" as="geometry" />
        </mxCell>
        <mxCell id="JsuIZHI8pPv00p21QjEl-58" style="edgeStyle=orthogonalEdgeStyle;rounded=0;orthogonalLoop=1;jettySize=auto;html=1;exitX=0.5;exitY=1;exitDx=0;exitDy=0;entryX=0.5;entryY=0;entryDx=0;entryDy=0;" parent="JsuIZHI8pPv00p21QjEl-57" source="JsuIZHI8pPv00p21QjEl-59" target="JsuIZHI8pPv00p21QjEl-60" edge="1">
          <mxGeometry relative="1" as="geometry" />
        </mxCell>
        <mxCell id="JsuIZHI8pPv00p21QjEl-59" value="뉴스 데이터&amp;nbsp;&lt;div&gt;요약본 전달&lt;/div&gt;" style="rounded=0;whiteSpace=wrap;html=1;fillColor=#dae8fc;strokeColor=#6c8ebf;" parent="JsuIZHI8pPv00p21QjEl-57" vertex="1">
          <mxGeometry x="193" y="40" width="120" height="60" as="geometry" />
        </mxCell>
        <mxCell id="JsuIZHI8pPv00p21QjEl-60" value="출력" style="rounded=0;whiteSpace=wrap;html=1;fillColor=#f8cecc;strokeColor=#b85450;" parent="JsuIZHI8pPv00p21QjEl-57" vertex="1">
          <mxGeometry x="193" y="140" width="120" height="60" as="geometry" />
        </mxCell>
        <mxCell id="JsuIZHI8pPv00p21QjEl-65" style="edgeStyle=orthogonalEdgeStyle;rounded=0;orthogonalLoop=1;jettySize=auto;html=1;exitX=0.5;exitY=1;exitDx=0;exitDy=0;entryX=0.5;entryY=0;entryDx=0;entryDy=0;" parent="1" source="JsuIZHI8pPv00p21QjEl-52" target="JsuIZHI8pPv00p21QjEl-31" edge="1">
          <mxGeometry relative="1" as="geometry" />
        </mxCell>
        <mxCell id="JsuIZHI8pPv00p21QjEl-66" style="edgeStyle=orthogonalEdgeStyle;rounded=0;orthogonalLoop=1;jettySize=auto;html=1;exitX=0.5;exitY=1;exitDx=0;exitDy=0;entryX=0.5;entryY=0;entryDx=0;entryDy=0;" parent="1" source="JsuIZHI8pPv00p21QjEl-52" target="JsuIZHI8pPv00p21QjEl-42" edge="1">
          <mxGeometry relative="1" as="geometry" />
        </mxCell>
        <mxCell id="JsuIZHI8pPv00p21QjEl-52" value="시작&lt;div&gt;(접속 등)&lt;/div&gt;" style="rounded=0;whiteSpace=wrap;html=1;fillColor=#f8cecc;strokeColor=#b85450;" parent="1" vertex="1">
          <mxGeometry x="700" y="60" width="120" height="60" as="geometry" />
        </mxCell>
        <mxCell id="JsuIZHI8pPv00p21QjEl-40" value="시스템 모듈" style="swimlane;horizontal=0;whiteSpace=wrap;html=1;direction=west;fillColor=#fa6800;fontColor=#000000;strokeColor=#C73500;" parent="1" vertex="1">
          <mxGeometry x="190" y="640" width="520" height="850" as="geometry" />
        </mxCell>
        <mxCell id="JsuIZHI8pPv00p21QjEl-56" value="종료" style="rounded=0;whiteSpace=wrap;html=1;fillColor=#f8cecc;strokeColor=#b85450;" parent="1" vertex="1">
          <mxGeometry x="1020" y="1330" width="120" height="60" as="geometry" />
        </mxCell>
        <mxCell id="JsuIZHI8pPv00p21QjEl-55" style="edgeStyle=orthogonalEdgeStyle;rounded=0;orthogonalLoop=1;jettySize=auto;html=1;exitX=0.5;exitY=1;exitDx=0;exitDy=0;" parent="1" source="JsuIZHI8pPv00p21QjEl-60" target="JsuIZHI8pPv00p21QjEl-56" edge="1">
          <mxGeometry relative="1" as="geometry" />
        </mxCell>
        <mxCell id="tuK9mVwaTLJAAyU5Ss8I-1" value="이력 관리" style="swimlane;childLayout=stackLayout;horizontal=1;startSize=50;horizontalStack=0;rounded=1;fontSize=14;fontStyle=1;strokeWidth=2;resizeParent=0;resizeLast=1;shadow=0;dashed=0;align=center;arcSize=4;whiteSpace=wrap;html=1;fillColor=#e1d5e7;strokeColor=#9673a6;" parent="1" vertex="1">
          <mxGeometry x="930" y="-20" width="240" height="120" as="geometry" />
        </mxCell>
        <mxCell id="tuK9mVwaTLJAAyU5Ss8I-2" value="&lt;b&gt;v0.1 초안 작성, 기본 흐름 분석&lt;br&gt;v0.2 로직 수정&lt;/b&gt;&lt;div&gt;&lt;b&gt;v0.3 요약본 존재 여부 확인 로직 추가&lt;/b&gt;&lt;/div&gt;&lt;div&gt;&lt;b&gt;v0.4 병렬처리 로직 추가&lt;/b&gt;&lt;/div&gt;" style="align=left;strokeColor=none;fillColor=none;spacingLeft=4;spacingRight=4;fontSize=12;verticalAlign=top;resizable=0;rotatable=0;part=1;html=1;whiteSpace=wrap;" parent="tuK9mVwaTLJAAyU5Ss8I-1" vertex="1">
          <mxGeometry y="50" width="240" height="70" as="geometry" />
        </mxCell>
      </root>
    </mxGraphModel>
  </diagram>
</mxfile>
